G04 #@! TF.FileFunction,Copper,L1,Top,Signal*
%FSLAX46Y46*%
G04 Gerber Fmt 4.6, Leading zero omitted, Abs format (unit mm)*
G04 Created by KiCad (PCBNEW 4.0.6) date 06/28/18 03:02:04*
%MOMM*%
%LPD*%
G01*
G04 APERTURE LIST*
%ADD10C,0.100000*%
%ADD11R,1.600000X1.600000*%
%ADD12C,1.600000*%
%ADD13R,3.500000X3.500000*%
%ADD14R,2.400000X2.400000*%
%ADD15O,2.400000X2.400000*%
%ADD16R,1.700000X1.700000*%
%ADD17O,1.700000X1.700000*%
%ADD18R,3.800000X2.000000*%
%ADD19R,1.500000X2.000000*%
%ADD20C,1.397000*%
%ADD21R,1.397000X1.397000*%
%ADD22C,3.000000*%
%ADD23R,3.000000X3.000000*%
%ADD24C,0.600000*%
%ADD25C,0.250000*%
G04 APERTURE END LIST*
D10*
D11*
X141259000Y-145948000D03*
D12*
X143759000Y-145948000D03*
X147569000Y-132486000D03*
X147569000Y-129986000D03*
D11*
X141259000Y-138074000D03*
D12*
X143759000Y-138074000D03*
D13*
X157400000Y-154300000D03*
X157400000Y-160300000D03*
X162100000Y-157300000D03*
D14*
X149961000Y-137344000D03*
D15*
X149961000Y-147504000D03*
D16*
X109220000Y-86360000D03*
D17*
X109220000Y-83820000D03*
X109220000Y-81280000D03*
X109220000Y-78740000D03*
X109220000Y-76200000D03*
X109220000Y-73660000D03*
X109220000Y-71120000D03*
X109220000Y-68580000D03*
D16*
X109220000Y-109220000D03*
D17*
X109220000Y-106680000D03*
X109220000Y-104140000D03*
X109220000Y-101600000D03*
X109220000Y-99060000D03*
X109220000Y-96520000D03*
X109220000Y-93980000D03*
X109220000Y-91440000D03*
D16*
X109301000Y-135926000D03*
D17*
X109301000Y-133386000D03*
X109301000Y-130846000D03*
X109301000Y-128306000D03*
X109301000Y-125766000D03*
X109301000Y-123226000D03*
X109301000Y-120686000D03*
X109301000Y-118146000D03*
X109301000Y-115606000D03*
X109301000Y-113066000D03*
D16*
X110490000Y-151540000D03*
D17*
X110490000Y-149000000D03*
X110490000Y-146460000D03*
D16*
X119100000Y-161480000D03*
D17*
X119100000Y-158940000D03*
X119100000Y-156400000D03*
X119100000Y-153860000D03*
X119100000Y-151320000D03*
X119100000Y-148780000D03*
X119100000Y-146240000D03*
X119100000Y-143700000D03*
X119100000Y-141160000D03*
X119100000Y-138620000D03*
X119100000Y-136080000D03*
X119100000Y-133540000D03*
X119100000Y-131000000D03*
X119100000Y-128460000D03*
X119100000Y-125920000D03*
X119100000Y-123380000D03*
X119100000Y-120840000D03*
X119100000Y-118300000D03*
X119100000Y-115760000D03*
X119100000Y-113220000D03*
X119100000Y-110680000D03*
X119100000Y-108140000D03*
X119100000Y-105600000D03*
X119100000Y-103060000D03*
D16*
X124206000Y-113284000D03*
D17*
X126746000Y-113284000D03*
X124206000Y-110744000D03*
X126746000Y-110744000D03*
X124206000Y-108204000D03*
X126746000Y-108204000D03*
X124206000Y-105664000D03*
X126746000Y-105664000D03*
X124206000Y-103124000D03*
X126746000Y-103124000D03*
D16*
X121700000Y-159004000D03*
D17*
X121700000Y-156464000D03*
X121700000Y-153924000D03*
X121700000Y-151384000D03*
X121700000Y-148844000D03*
D16*
X124206000Y-146304000D03*
D17*
X126746000Y-146304000D03*
X124206000Y-143764000D03*
X126746000Y-143764000D03*
X124206000Y-141224000D03*
X126746000Y-141224000D03*
X124206000Y-138684000D03*
X126746000Y-138684000D03*
D16*
X130937000Y-152718000D03*
D17*
X130937000Y-150178000D03*
X130937000Y-147638000D03*
X130937000Y-145098000D03*
D16*
X109220000Y-57960000D03*
D17*
X109220000Y-60500000D03*
X111760000Y-57960000D03*
X111760000Y-60500000D03*
X114300000Y-57960000D03*
X114300000Y-60500000D03*
X116840000Y-57960000D03*
X116840000Y-60500000D03*
X119380000Y-57960000D03*
X119380000Y-60500000D03*
X121920000Y-57960000D03*
X121920000Y-60500000D03*
X124460000Y-57960000D03*
X124460000Y-60500000D03*
X127000000Y-57960000D03*
X127000000Y-60500000D03*
X129540000Y-57960000D03*
X129540000Y-60500000D03*
X132080000Y-57960000D03*
X132080000Y-60500000D03*
X134620000Y-57960000D03*
X134620000Y-60500000D03*
X137160000Y-57960000D03*
X137160000Y-60500000D03*
X139700000Y-57960000D03*
X139700000Y-60500000D03*
X142240000Y-57960000D03*
X142240000Y-60500000D03*
X144780000Y-57960000D03*
X144780000Y-60500000D03*
X147320000Y-57960000D03*
X147320000Y-60500000D03*
X149860000Y-57960000D03*
X149860000Y-60500000D03*
X152400000Y-57960000D03*
X152400000Y-60500000D03*
D16*
X134366000Y-161544000D03*
D17*
X134366000Y-159004000D03*
X134366000Y-156464000D03*
X134366000Y-153924000D03*
X134366000Y-151384000D03*
X134366000Y-148844000D03*
X134366000Y-146304000D03*
X134366000Y-143764000D03*
X134366000Y-141224000D03*
X134366000Y-138684000D03*
X134366000Y-136144000D03*
X134366000Y-133604000D03*
X134366000Y-131064000D03*
X134366000Y-128524000D03*
X134366000Y-125984000D03*
X134366000Y-123444000D03*
X134366000Y-120904000D03*
X134366000Y-118364000D03*
X134366000Y-115824000D03*
X134366000Y-113284000D03*
X134366000Y-110744000D03*
X134366000Y-108204000D03*
X134366000Y-105664000D03*
X134366000Y-103124000D03*
D16*
X157480000Y-80772000D03*
D17*
X157480000Y-78232000D03*
X157480000Y-75692000D03*
X157480000Y-73152000D03*
X157480000Y-70612000D03*
X157480000Y-68072000D03*
X157480000Y-65532000D03*
X157480000Y-62992000D03*
D16*
X157480000Y-104140000D03*
D17*
X157480000Y-101600000D03*
X157480000Y-99060000D03*
X157480000Y-96520000D03*
X157480000Y-93980000D03*
X157480000Y-91440000D03*
X157480000Y-88900000D03*
X157480000Y-86360000D03*
D16*
X157480000Y-127000000D03*
D17*
X157480000Y-124460000D03*
X157480000Y-121920000D03*
X157480000Y-119380000D03*
X157480000Y-116840000D03*
X157480000Y-114300000D03*
X157480000Y-111760000D03*
X157480000Y-109220000D03*
D16*
X124206000Y-123444000D03*
D17*
X126746000Y-123444000D03*
X124206000Y-120904000D03*
X126746000Y-120904000D03*
X124206000Y-118364000D03*
X126746000Y-118364000D03*
D16*
X121666000Y-115824000D03*
D17*
X124206000Y-115824000D03*
X126746000Y-115824000D03*
X129286000Y-115824000D03*
X131826000Y-115824000D03*
D18*
X145796000Y-162433000D03*
D19*
X145796000Y-156133000D03*
X143496000Y-156133000D03*
X148096000Y-156133000D03*
D20*
X106680000Y-156464000D03*
X106680000Y-161544000D03*
X99060000Y-156464000D03*
X99060000Y-161544000D03*
X106426000Y-147066000D03*
X106426000Y-152146000D03*
X98806000Y-147066000D03*
X98806000Y-152146000D03*
D21*
X112268000Y-156210000D03*
D20*
X112268000Y-158750000D03*
X112268000Y-161290000D03*
D22*
X136900000Y-74910000D03*
D23*
X136900000Y-95400000D03*
D16*
X160800000Y-141100000D03*
D17*
X160800000Y-143640000D03*
X160800000Y-146180000D03*
D16*
X155448000Y-138176000D03*
D17*
X155448000Y-135636000D03*
D24*
X110735800Y-81075900D03*
X108215800Y-117143300D03*
X113892400Y-136093100D03*
X123953700Y-130399400D03*
X113996200Y-120760400D03*
X114598900Y-133271600D03*
X121665100Y-137152900D03*
X151659400Y-117812600D03*
X116014000Y-71968400D03*
X126469100Y-125692300D03*
X117018600Y-69783200D03*
X117467500Y-62751700D03*
X119351300Y-66523800D03*
X112935300Y-101167300D03*
X129052600Y-66567700D03*
X132774300Y-148164000D03*
X112091400Y-86057400D03*
X114793500Y-87823500D03*
X144105800Y-63201500D03*
X143419300Y-61942200D03*
X142865300Y-64975800D03*
X142356800Y-65758200D03*
X113296700Y-125320300D03*
X113307500Y-126646500D03*
X111125400Y-124607600D03*
D25*
X141259000Y-145948000D02*
X141259000Y-147073300D01*
X149961000Y-134878000D02*
X147569000Y-132486000D01*
X149961000Y-137344000D02*
X149961000Y-134878000D01*
X143496000Y-149310300D02*
X143496000Y-156133000D01*
X141259000Y-147073300D02*
X143496000Y-149310300D01*
X148096000Y-150285000D02*
X143759000Y-145948000D01*
X148096000Y-156133000D02*
X148096000Y-150285000D01*
X157400000Y-160300000D02*
X155324700Y-160300000D01*
X151157700Y-156133000D02*
X155324700Y-160300000D01*
X148096000Y-156133000D02*
X151157700Y-156133000D01*
X143759000Y-138074000D02*
X143759000Y-145948000D01*
X111129000Y-152715300D02*
X110490000Y-152715300D01*
X118718300Y-160304600D02*
X111129000Y-152715300D01*
X131951300Y-160304600D02*
X118718300Y-160304600D01*
X133190700Y-161544000D02*
X131951300Y-160304600D01*
X134366000Y-161544000D02*
X133190700Y-161544000D01*
X110490000Y-151540000D02*
X110490000Y-152715300D01*
X141259000Y-138074000D02*
X141259000Y-139199300D01*
X145796000Y-150485000D02*
X145796000Y-156133000D01*
X142384300Y-147073300D02*
X145796000Y-150485000D01*
X142384300Y-140324600D02*
X142384300Y-147073300D01*
X141259000Y-139199300D02*
X142384300Y-140324600D01*
X143284300Y-162719400D02*
X143570700Y-162433000D01*
X117753600Y-162719400D02*
X143284300Y-162719400D01*
X112268000Y-157233800D02*
X117753600Y-162719400D01*
X112268000Y-156210000D02*
X112268000Y-157233800D01*
X145796000Y-162433000D02*
X145071100Y-162433000D01*
X145071100Y-162433000D02*
X143570700Y-162433000D01*
X145796000Y-161708100D02*
X145796000Y-156133000D01*
X145071100Y-162433000D02*
X145796000Y-161708100D01*
X109587300Y-77375300D02*
X109220000Y-77375300D01*
X110735800Y-78523800D02*
X109587300Y-77375300D01*
X110735800Y-81075900D02*
X110735800Y-78523800D01*
X109220000Y-76200000D02*
X109220000Y-77375300D01*
X109301000Y-133386000D02*
X109301000Y-132210700D01*
X109220000Y-71120000D02*
X109220000Y-72295300D01*
X108933700Y-132210700D02*
X109301000Y-132210700D01*
X108103100Y-131380100D02*
X108933700Y-132210700D01*
X108103100Y-117143300D02*
X108103100Y-131380100D01*
X108103100Y-117143300D02*
X108215800Y-117143300D01*
X107141100Y-116181300D02*
X108103100Y-117143300D01*
X107141100Y-74006900D02*
X107141100Y-116181300D01*
X108852700Y-72295300D02*
X107141100Y-74006900D01*
X109220000Y-72295300D02*
X108852700Y-72295300D01*
X109301000Y-135926000D02*
X109301000Y-134750700D01*
X109220000Y-68580000D02*
X109220000Y-69755300D01*
X108933700Y-134750700D02*
X109301000Y-134750700D01*
X106690800Y-132507800D02*
X108933700Y-134750700D01*
X106690800Y-71917200D02*
X106690800Y-132507800D01*
X108852700Y-69755300D02*
X106690800Y-71917200D01*
X109220000Y-69755300D02*
X108852700Y-69755300D01*
X109587300Y-102775300D02*
X109220000Y-102775300D01*
X113145700Y-106333700D02*
X109587300Y-102775300D01*
X113145700Y-120935400D02*
X113145700Y-106333700D01*
X116510700Y-124300400D02*
X113145700Y-120935400D01*
X116510700Y-127581600D02*
X116510700Y-124300400D01*
X118659100Y-129730000D02*
X116510700Y-127581600D01*
X119554200Y-129730000D02*
X118659100Y-129730000D01*
X123001500Y-133177300D02*
X119554200Y-129730000D01*
X123001500Y-147277500D02*
X123001500Y-133177300D01*
X127097900Y-151373900D02*
X123001500Y-147277500D01*
X131468800Y-151373900D02*
X127097900Y-151373900D01*
X133190700Y-149652000D02*
X131468800Y-151373900D01*
X133190700Y-148844000D02*
X133190700Y-149652000D01*
X134366000Y-148844000D02*
X133190700Y-148844000D01*
X109220000Y-101600000D02*
X109220000Y-102775300D01*
X134366000Y-151384000D02*
X134366000Y-152559300D01*
X109220000Y-99060000D02*
X109220000Y-100235300D01*
X133274200Y-152559300D02*
X134366000Y-152559300D01*
X131940100Y-153893400D02*
X133274200Y-152559300D01*
X128905200Y-153893400D02*
X131940100Y-153893400D01*
X122354800Y-147343000D02*
X128905200Y-153893400D01*
X122354800Y-135132400D02*
X122354800Y-147343000D01*
X119492400Y-132270000D02*
X122354800Y-135132400D01*
X118620900Y-132270000D02*
X119492400Y-132270000D01*
X115845300Y-129494400D02*
X118620900Y-132270000D01*
X115845300Y-124436900D02*
X115845300Y-129494400D01*
X112508700Y-121100300D02*
X115845300Y-124436900D01*
X112508700Y-114607300D02*
X112508700Y-121100300D01*
X109180600Y-111279200D02*
X112508700Y-114607300D01*
X109109300Y-111279200D02*
X109180600Y-111279200D01*
X108044700Y-110214600D02*
X109109300Y-111279200D01*
X108044700Y-101043200D02*
X108044700Y-110214600D01*
X108852600Y-100235300D02*
X108044700Y-101043200D01*
X109220000Y-100235300D02*
X108852600Y-100235300D01*
X109220000Y-93980000D02*
X109220000Y-95155300D01*
X126140200Y-156464000D02*
X134366000Y-156464000D01*
X122296800Y-152620600D02*
X126140200Y-156464000D01*
X121189100Y-152620600D02*
X122296800Y-152620600D01*
X120486400Y-151917900D02*
X121189100Y-152620600D01*
X120486400Y-140866700D02*
X120486400Y-151917900D01*
X119509700Y-139890000D02*
X120486400Y-140866700D01*
X118703800Y-139890000D02*
X119509700Y-139890000D01*
X113973600Y-135159800D02*
X118703800Y-139890000D01*
X113973600Y-125112700D02*
X113973600Y-135159800D01*
X110669100Y-121808200D02*
X113973600Y-125112700D01*
X110669100Y-117849400D02*
X110669100Y-121808200D01*
X109695700Y-116876000D02*
X110669100Y-117849400D01*
X108904000Y-116876000D02*
X109695700Y-116876000D01*
X107591400Y-115563400D02*
X108904000Y-116876000D01*
X107591400Y-96416600D02*
X107591400Y-115563400D01*
X108852700Y-95155300D02*
X107591400Y-96416600D01*
X109220000Y-95155300D02*
X108852700Y-95155300D01*
X121700000Y-153924000D02*
X120524700Y-153924000D01*
X113892400Y-147794900D02*
X113892400Y-136093100D01*
X118687500Y-152590000D02*
X113892400Y-147794900D01*
X119558000Y-152590000D02*
X118687500Y-152590000D01*
X120524700Y-153556700D02*
X119558000Y-152590000D01*
X120524700Y-153924000D02*
X120524700Y-153556700D01*
X117885800Y-124650000D02*
X113996200Y-120760400D01*
X119512000Y-124650000D02*
X117885800Y-124650000D01*
X123953700Y-129091700D02*
X119512000Y-124650000D01*
X123953700Y-130399400D02*
X123953700Y-129091700D01*
X114598900Y-124795000D02*
X114598900Y-133271600D01*
X111119400Y-121315500D02*
X114598900Y-124795000D01*
X111119400Y-117424400D02*
X111119400Y-121315500D01*
X109301000Y-115606000D02*
X111119400Y-117424400D01*
X109301000Y-113066000D02*
X109301000Y-114241300D01*
X121665100Y-136981100D02*
X121665100Y-137152900D01*
X119494000Y-134810000D02*
X121665100Y-136981100D01*
X118604300Y-134810000D02*
X119494000Y-134810000D01*
X115258900Y-131464600D02*
X118604300Y-134810000D01*
X115258900Y-124767800D02*
X115258900Y-131464600D01*
X112020000Y-121528900D02*
X115258900Y-124767800D01*
X112020000Y-116593000D02*
X112020000Y-121528900D01*
X109668300Y-114241300D02*
X112020000Y-116593000D01*
X109301000Y-114241300D02*
X109668300Y-114241300D01*
X111404300Y-150175300D02*
X110490000Y-150175300D01*
X111665300Y-150436300D02*
X111404300Y-150175300D01*
X111665300Y-150697400D02*
X111665300Y-150436300D01*
X118732600Y-157764700D02*
X111665300Y-150697400D01*
X119100000Y-157764700D02*
X118732600Y-157764700D01*
X119100000Y-158940000D02*
X119100000Y-157764700D01*
X110490000Y-149000000D02*
X110490000Y-150175300D01*
X119100000Y-156400000D02*
X119100000Y-155224700D01*
X110490000Y-146460000D02*
X110490000Y-147635300D01*
X118469200Y-155224700D02*
X119100000Y-155224700D01*
X110879800Y-147635300D02*
X118469200Y-155224700D01*
X110490000Y-147635300D02*
X110879800Y-147635300D01*
X157480000Y-78232000D02*
X157480000Y-79407300D01*
X120434000Y-155194000D02*
X119100000Y-153860000D01*
X122628100Y-155194000D02*
X120434000Y-155194000D01*
X125078200Y-157644100D02*
X122628100Y-155194000D01*
X134873200Y-157644100D02*
X125078200Y-157644100D01*
X140133700Y-152383600D02*
X134873200Y-157644100D01*
X140133700Y-135423900D02*
X140133700Y-152383600D01*
X151034100Y-124523500D02*
X140133700Y-135423900D01*
X151034100Y-85045200D02*
X151034100Y-124523500D01*
X156672000Y-79407300D02*
X151034100Y-85045200D01*
X157480000Y-79407300D02*
X156672000Y-79407300D01*
X151659400Y-111135900D02*
X157480000Y-105315300D01*
X151659400Y-117812600D02*
X151659400Y-111135900D01*
X157480000Y-104140000D02*
X157480000Y-105315300D01*
X119100000Y-123380000D02*
X119100000Y-122204700D01*
X127000000Y-57960000D02*
X125824700Y-57960000D01*
X118798700Y-122204700D02*
X119100000Y-122204700D01*
X115418800Y-118824800D02*
X118798700Y-122204700D01*
X115418800Y-81830000D02*
X115418800Y-118824800D01*
X115348900Y-81760100D02*
X115418800Y-81830000D01*
X115348900Y-71749200D02*
X115348900Y-81760100D01*
X115497100Y-71601000D02*
X115348900Y-71749200D01*
X115497100Y-57634200D02*
X115497100Y-71601000D01*
X116346600Y-56784700D02*
X115497100Y-57634200D01*
X125016800Y-56784700D02*
X116346600Y-56784700D01*
X125824700Y-57592600D02*
X125016800Y-56784700D01*
X125824700Y-57960000D02*
X125824700Y-57592600D01*
X116014000Y-117754000D02*
X116014000Y-71968400D01*
X119100000Y-120840000D02*
X116014000Y-117754000D01*
X123952300Y-125692300D02*
X119100000Y-120840000D01*
X126469100Y-125692300D02*
X123952300Y-125692300D01*
X119100000Y-118300000D02*
X119100000Y-117124700D01*
X117089600Y-69854200D02*
X117018600Y-69783200D01*
X117089600Y-73759600D02*
X117089600Y-69854200D01*
X116999200Y-73850000D02*
X117089600Y-73759600D01*
X116999200Y-115391300D02*
X116999200Y-73850000D01*
X118732600Y-117124700D02*
X116999200Y-115391300D01*
X119100000Y-117124700D02*
X118732600Y-117124700D01*
X119100000Y-115760000D02*
X119100000Y-114584700D01*
X117645300Y-62929500D02*
X117467500Y-62751700D01*
X117645300Y-74023000D02*
X117645300Y-62929500D01*
X117467500Y-74200800D02*
X117645300Y-74023000D01*
X117467500Y-113291200D02*
X117467500Y-74200800D01*
X118761000Y-114584700D02*
X117467500Y-113291200D01*
X119100000Y-114584700D02*
X118761000Y-114584700D01*
X116840000Y-57960000D02*
X116840000Y-59135300D01*
X119100000Y-113220000D02*
X119100000Y-112044700D01*
X117207300Y-59135300D02*
X116840000Y-59135300D01*
X118115700Y-60043700D02*
X117207300Y-59135300D01*
X118115700Y-74189500D02*
X118115700Y-60043700D01*
X117924700Y-74380500D02*
X118115700Y-74189500D01*
X117924700Y-111236800D02*
X117924700Y-74380500D01*
X118732600Y-112044700D02*
X117924700Y-111236800D01*
X119100000Y-112044700D02*
X118732600Y-112044700D01*
X119100000Y-110680000D02*
X119100000Y-109504700D01*
X120275300Y-67447800D02*
X119351300Y-66523800D01*
X120275300Y-108626900D02*
X120275300Y-67447800D01*
X119397500Y-109504700D02*
X120275300Y-108626900D01*
X119100000Y-109504700D02*
X119397500Y-109504700D01*
X111760000Y-57960000D02*
X111760000Y-59135300D01*
X112935300Y-59943200D02*
X112935300Y-101167300D01*
X112127400Y-59135300D02*
X112935300Y-59943200D01*
X111760000Y-59135300D02*
X112127400Y-59135300D01*
X129052600Y-110977400D02*
X129052600Y-66567700D01*
X126746000Y-113284000D02*
X129052600Y-110977400D01*
X132080000Y-57960000D02*
X132080000Y-59135300D01*
X124206000Y-113284000D02*
X125381300Y-113284000D01*
X132447300Y-59135300D02*
X132080000Y-59135300D01*
X133265700Y-59953700D02*
X132447300Y-59135300D01*
X133265700Y-61396600D02*
X133265700Y-59953700D01*
X128412900Y-66249400D02*
X133265700Y-61396600D01*
X128412900Y-110743500D02*
X128412900Y-66249400D01*
X127047700Y-112108700D02*
X128412900Y-110743500D01*
X126189200Y-112108700D02*
X127047700Y-112108700D01*
X125381300Y-112916600D02*
X126189200Y-112108700D01*
X125381300Y-113284000D02*
X125381300Y-112916600D01*
X127000000Y-60500000D02*
X127000000Y-61675300D01*
X126746000Y-110744000D02*
X125570700Y-110744000D01*
X122580400Y-66094900D02*
X127000000Y-61675300D01*
X122580400Y-110795500D02*
X122580400Y-66094900D01*
X123704200Y-111919300D02*
X122580400Y-110795500D01*
X124762800Y-111919300D02*
X123704200Y-111919300D01*
X125570700Y-111111400D02*
X124762800Y-111919300D01*
X125570700Y-110744000D02*
X125570700Y-111111400D01*
X129540000Y-57960000D02*
X129540000Y-59135300D01*
X124206000Y-110744000D02*
X124206000Y-109568700D01*
X129172600Y-59135300D02*
X129540000Y-59135300D01*
X128364700Y-59943200D02*
X129172600Y-59135300D01*
X128364700Y-61820700D02*
X128364700Y-59943200D01*
X123030700Y-67154700D02*
X128364700Y-61820700D01*
X123030700Y-108694700D02*
X123030700Y-67154700D01*
X123904700Y-109568700D02*
X123030700Y-108694700D01*
X124206000Y-109568700D02*
X123904700Y-109568700D01*
X126378600Y-107028700D02*
X126746000Y-107028700D01*
X125570700Y-106220800D02*
X126378600Y-107028700D01*
X125570700Y-65644600D02*
X125570700Y-106220800D01*
X129540000Y-61675300D02*
X125570700Y-65644600D01*
X129540000Y-60500000D02*
X129540000Y-61675300D01*
X126746000Y-108204000D02*
X126746000Y-107028700D01*
X127113400Y-104488700D02*
X126746000Y-104488700D01*
X127921300Y-103680800D02*
X127113400Y-104488700D01*
X127921300Y-65834000D02*
X127921300Y-103680800D01*
X132080000Y-61675300D02*
X127921300Y-65834000D01*
X132080000Y-60500000D02*
X132080000Y-61675300D01*
X126746000Y-105664000D02*
X126746000Y-104488700D01*
X121700000Y-151384000D02*
X122875300Y-151384000D01*
X157480000Y-75692000D02*
X157480000Y-76867300D01*
X126595100Y-155103800D02*
X122875300Y-151384000D01*
X134861100Y-155103800D02*
X126595100Y-155103800D01*
X139680200Y-150284700D02*
X134861100Y-155103800D01*
X139680200Y-135240500D02*
X139680200Y-150284700D01*
X150583800Y-124336900D02*
X139680200Y-135240500D01*
X150583800Y-83396100D02*
X150583800Y-124336900D01*
X157112600Y-76867300D02*
X150583800Y-83396100D01*
X157480000Y-76867300D02*
X157112600Y-76867300D01*
X157480000Y-73152000D02*
X157480000Y-74327300D01*
X132774300Y-141110700D02*
X132774300Y-148164000D01*
X133836400Y-140048600D02*
X132774300Y-141110700D01*
X134663700Y-140048600D02*
X133836400Y-140048600D01*
X137226300Y-137486000D02*
X134663700Y-140048600D01*
X137226300Y-136331600D02*
X137226300Y-137486000D01*
X150133500Y-123424400D02*
X137226300Y-136331600D01*
X150133500Y-81306500D02*
X150133500Y-123424400D01*
X157112700Y-74327300D02*
X150133500Y-81306500D01*
X157480000Y-74327300D02*
X157112700Y-74327300D01*
X149860000Y-60500000D02*
X149860000Y-61675300D01*
X124206000Y-146304000D02*
X125381300Y-146304000D01*
X125381300Y-145936600D02*
X125381300Y-146304000D01*
X126189200Y-145128700D02*
X125381300Y-145936600D01*
X127101400Y-145128700D02*
X126189200Y-145128700D01*
X128468700Y-143761400D02*
X127101400Y-145128700D01*
X128468700Y-140351500D02*
X128468700Y-143761400D01*
X133946200Y-134874000D02*
X128468700Y-140351500D01*
X134771500Y-134874000D02*
X133946200Y-134874000D01*
X148343000Y-121302500D02*
X134771500Y-134874000D01*
X148343000Y-63192300D02*
X148343000Y-121302500D01*
X149860000Y-61675300D02*
X148343000Y-63192300D01*
X124206000Y-143764000D02*
X124206000Y-142588700D01*
X147320000Y-60500000D02*
X147320000Y-61675300D01*
X124573400Y-142588700D02*
X124206000Y-142588700D01*
X125381300Y-141780800D02*
X124573400Y-142588700D01*
X125381300Y-140904500D02*
X125381300Y-141780800D01*
X126380200Y-139905600D02*
X125381300Y-140904500D01*
X127216500Y-139905600D02*
X126380200Y-139905600D01*
X128070700Y-139051400D02*
X127216500Y-139905600D01*
X128070700Y-135657800D02*
X128070700Y-139051400D01*
X133934500Y-129794000D02*
X128070700Y-135657800D01*
X134761400Y-129794000D02*
X133934500Y-129794000D01*
X147320000Y-117235400D02*
X134761400Y-129794000D01*
X147320000Y-61675300D02*
X147320000Y-117235400D01*
X124206000Y-141224000D02*
X124206000Y-140048700D01*
X144780000Y-60500000D02*
X144780000Y-61675300D01*
X144841900Y-61737200D02*
X144780000Y-61675300D01*
X144841900Y-114646700D02*
X144841900Y-61737200D01*
X134774600Y-124714000D02*
X144841900Y-114646700D01*
X133963900Y-124714000D02*
X134774600Y-124714000D01*
X125381300Y-133296600D02*
X133963900Y-124714000D01*
X125381300Y-139240800D02*
X125381300Y-133296600D01*
X124573400Y-140048700D02*
X125381300Y-139240800D01*
X124206000Y-140048700D02*
X124573400Y-140048700D01*
X142240000Y-60500000D02*
X142240000Y-61675300D01*
X124206000Y-138684000D02*
X124206000Y-137508700D01*
X124579000Y-137135700D02*
X124206000Y-137508700D01*
X124579000Y-128468500D02*
X124579000Y-137135700D01*
X133190700Y-119856800D02*
X124579000Y-128468500D01*
X133190700Y-102636800D02*
X133190700Y-119856800D01*
X140889100Y-94938400D02*
X133190700Y-102636800D01*
X140889100Y-63026200D02*
X140889100Y-94938400D01*
X142240000Y-61675300D02*
X140889100Y-63026200D01*
X134620000Y-57960000D02*
X135795300Y-57960000D01*
X130937000Y-150178000D02*
X130937000Y-149002700D01*
X131304400Y-149002700D02*
X130937000Y-149002700D01*
X132112300Y-148194800D02*
X131304400Y-149002700D01*
X132112300Y-139260100D02*
X132112300Y-148194800D01*
X133958400Y-137414000D02*
X132112300Y-139260100D01*
X134758300Y-137414000D02*
X133958400Y-137414000D01*
X149683200Y-122489100D02*
X134758300Y-137414000D01*
X149683200Y-62489000D02*
X149683200Y-122489100D01*
X151042800Y-61129400D02*
X149683200Y-62489000D01*
X151042800Y-60018000D02*
X151042800Y-61129400D01*
X150254800Y-59230000D02*
X151042800Y-60018000D01*
X146889000Y-59230000D02*
X150254800Y-59230000D01*
X146144600Y-58485600D02*
X146889000Y-59230000D01*
X146144600Y-57662100D02*
X146144600Y-58485600D01*
X145241200Y-56758700D02*
X146144600Y-57662100D01*
X136629300Y-56758700D02*
X145241200Y-56758700D01*
X135795300Y-57592700D02*
X136629300Y-56758700D01*
X135795300Y-57960000D02*
X135795300Y-57592700D01*
X111760000Y-60500000D02*
X111760000Y-61675300D01*
X112091400Y-62006700D02*
X112091400Y-86057400D01*
X111760000Y-61675300D02*
X112091400Y-62006700D01*
X114300000Y-60500000D02*
X114300000Y-61675300D01*
X114793500Y-62168800D02*
X114793500Y-87823500D01*
X114300000Y-61675300D02*
X114793500Y-62168800D01*
X124206000Y-123444000D02*
X123030700Y-123444000D01*
X116840000Y-60500000D02*
X116840000Y-61675300D01*
X116348900Y-62166400D02*
X116840000Y-61675300D01*
X116348900Y-71418900D02*
X116348900Y-62166400D01*
X116639300Y-71709300D02*
X116348900Y-71418900D01*
X116639300Y-73573000D02*
X116639300Y-71709300D01*
X116490600Y-73721700D02*
X116639300Y-73573000D01*
X116490600Y-117357800D02*
X116490600Y-73721700D01*
X118702800Y-119570000D02*
X116490600Y-117357800D01*
X119524000Y-119570000D02*
X118702800Y-119570000D01*
X123030700Y-123076700D02*
X119524000Y-119570000D01*
X123030700Y-123444000D02*
X123030700Y-123076700D01*
X120744600Y-63039900D02*
X119380000Y-61675300D01*
X120744600Y-111805100D02*
X120744600Y-63039900D01*
X120490600Y-112059100D02*
X120744600Y-111805100D01*
X120490600Y-116821300D02*
X120490600Y-112059100D01*
X123398000Y-119728700D02*
X120490600Y-116821300D01*
X124206000Y-119728700D02*
X123398000Y-119728700D01*
X124206000Y-120904000D02*
X124206000Y-119728700D01*
X119380000Y-60500000D02*
X119380000Y-61675300D01*
X124206000Y-118364000D02*
X124206000Y-117188700D01*
X121920000Y-60500000D02*
X121920000Y-61675300D01*
X121920000Y-112113900D02*
X121920000Y-61675300D01*
X123030700Y-113224600D02*
X121920000Y-112113900D01*
X123030700Y-116380800D02*
X123030700Y-113224600D01*
X123838600Y-117188700D02*
X123030700Y-116380800D01*
X124206000Y-117188700D02*
X123838600Y-117188700D01*
X126746000Y-118364000D02*
X126746000Y-117188700D01*
X134620000Y-60500000D02*
X134620000Y-61675300D01*
X129726600Y-66568700D02*
X134620000Y-61675300D01*
X129726600Y-111969100D02*
X129726600Y-66568700D01*
X127141700Y-114554000D02*
X129726600Y-111969100D01*
X126315000Y-114554000D02*
X127141700Y-114554000D01*
X125570600Y-115298400D02*
X126315000Y-114554000D01*
X125570600Y-116380600D02*
X125570600Y-115298400D01*
X126378700Y-117188700D02*
X125570600Y-116380600D01*
X126746000Y-117188700D02*
X126378700Y-117188700D01*
X138757900Y-63273200D02*
X137160000Y-61675300D01*
X138757900Y-76252300D02*
X138757900Y-63273200D01*
X130746000Y-84264200D02*
X138757900Y-76252300D01*
X130746000Y-112460900D02*
X130746000Y-84264200D01*
X127921300Y-115285600D02*
X130746000Y-112460900D01*
X127921300Y-118920800D02*
X127921300Y-115285600D01*
X127113400Y-119728700D02*
X127921300Y-118920800D01*
X126746000Y-119728700D02*
X127113400Y-119728700D01*
X126746000Y-120904000D02*
X126746000Y-119728700D01*
X137160000Y-60500000D02*
X137160000Y-61675300D01*
X134366000Y-123444000D02*
X134366000Y-122268700D01*
X144391600Y-63487300D02*
X144105800Y-63201500D01*
X144391600Y-112610400D02*
X144391600Y-63487300D01*
X134733300Y-122268700D02*
X144391600Y-112610400D01*
X134366000Y-122268700D02*
X134733300Y-122268700D01*
X139700000Y-78204600D02*
X139700000Y-60500000D01*
X131196400Y-86708200D02*
X139700000Y-78204600D01*
X131196400Y-114648600D02*
X131196400Y-86708200D01*
X130461400Y-115383600D02*
X131196400Y-114648600D01*
X130461400Y-118920600D02*
X130461400Y-115383600D01*
X127113300Y-122268700D02*
X130461400Y-118920600D01*
X126746000Y-122268700D02*
X127113300Y-122268700D01*
X126746000Y-123444000D02*
X126746000Y-122268700D01*
X134366000Y-120904000D02*
X134366000Y-119728700D01*
X143419300Y-63801000D02*
X143419300Y-61942200D01*
X143941300Y-64323000D02*
X143419300Y-63801000D01*
X143941300Y-110520700D02*
X143941300Y-64323000D01*
X134733300Y-119728700D02*
X143941300Y-110520700D01*
X134366000Y-119728700D02*
X134733300Y-119728700D01*
X144780000Y-57960000D02*
X144780000Y-59135300D01*
X134366000Y-118364000D02*
X134366000Y-117188700D01*
X144412600Y-59135300D02*
X144780000Y-59135300D01*
X143604700Y-59943200D02*
X144412600Y-59135300D01*
X143604700Y-60864600D02*
X143604700Y-59943200D01*
X142770100Y-61699200D02*
X143604700Y-60864600D01*
X142770100Y-63788800D02*
X142770100Y-61699200D01*
X143491000Y-64509700D02*
X142770100Y-63788800D01*
X143491000Y-95037700D02*
X143491000Y-64509700D01*
X138849000Y-99679700D02*
X143491000Y-95037700D01*
X138849000Y-113073100D02*
X138849000Y-99679700D01*
X134733400Y-117188700D02*
X138849000Y-113073100D01*
X134366000Y-117188700D02*
X134733400Y-117188700D01*
X134366000Y-115824000D02*
X134366000Y-114648700D01*
X142983300Y-65093800D02*
X142865300Y-64975800D01*
X142983300Y-94118000D02*
X142983300Y-65093800D01*
X136064700Y-101036600D02*
X142983300Y-94118000D01*
X136064700Y-113317300D02*
X136064700Y-101036600D01*
X134733300Y-114648700D02*
X136064700Y-113317300D01*
X134366000Y-114648700D02*
X134733300Y-114648700D01*
X134366000Y-113284000D02*
X134366000Y-112108700D01*
X134733400Y-112108700D02*
X134366000Y-112108700D01*
X135541300Y-111300800D02*
X134733400Y-112108700D01*
X135541300Y-100923100D02*
X135541300Y-111300800D01*
X142356800Y-94107600D02*
X135541300Y-100923100D01*
X142356800Y-65758200D02*
X142356800Y-94107600D01*
X157480000Y-111760000D02*
X157480000Y-114300000D01*
X152400000Y-62114500D02*
X152400000Y-60500000D01*
X157087500Y-66802000D02*
X152400000Y-62114500D01*
X157969500Y-66802000D02*
X157087500Y-66802000D01*
X158655400Y-67487900D02*
X157969500Y-66802000D01*
X158655400Y-106304800D02*
X158655400Y-67487900D01*
X156301600Y-108658600D02*
X158655400Y-106304800D01*
X156301600Y-110581600D02*
X156301600Y-108658600D01*
X157480000Y-111760000D02*
X156301600Y-110581600D01*
X152400000Y-60500000D02*
X152400000Y-57960000D01*
X112381700Y-141110300D02*
X106426000Y-147066000D01*
X112381700Y-126235300D02*
X112381700Y-141110300D01*
X113296700Y-125320300D02*
X112381700Y-126235300D01*
X130295700Y-112274300D02*
X126746000Y-115824000D01*
X130295700Y-81514300D02*
X130295700Y-112274300D01*
X136900000Y-74910000D02*
X130295700Y-81514300D01*
X106426000Y-148514100D02*
X106426000Y-152146000D01*
X113057100Y-141883000D02*
X106426000Y-148514100D01*
X113057100Y-126896900D02*
X113057100Y-141883000D01*
X113307500Y-126646500D02*
X113057100Y-126896900D01*
X136900000Y-95400000D02*
X136900000Y-97225300D01*
X131826000Y-115824000D02*
X131826000Y-114648700D01*
X131826000Y-102299300D02*
X136900000Y-97225300D01*
X131826000Y-114648700D02*
X131826000Y-102299300D01*
X158288100Y-125635300D02*
X157480000Y-125635300D01*
X158655300Y-126002500D02*
X158288100Y-125635300D01*
X158655300Y-141128000D02*
X158655300Y-126002500D01*
X159992000Y-142464700D02*
X158655300Y-141128000D01*
X160800000Y-142464700D02*
X159992000Y-142464700D01*
X160800000Y-143640000D02*
X160800000Y-142464700D01*
X157480000Y-124460000D02*
X157480000Y-125635300D01*
X157480000Y-119380000D02*
X157480000Y-120555300D01*
X160800000Y-146180000D02*
X160800000Y-145004700D01*
X157112600Y-120555300D02*
X157480000Y-120555300D01*
X156304700Y-121363200D02*
X157112600Y-120555300D01*
X156304700Y-127984800D02*
X156304700Y-121363200D01*
X157673700Y-129353800D02*
X156304700Y-127984800D01*
X157673700Y-142245700D02*
X157673700Y-129353800D01*
X160432700Y-145004700D02*
X157673700Y-142245700D01*
X160800000Y-145004700D02*
X160432700Y-145004700D01*
X157400000Y-154300000D02*
X157400000Y-152224700D01*
X149961000Y-147504000D02*
X151486300Y-147504000D01*
X155448000Y-147504000D02*
X151486300Y-147504000D01*
X155448000Y-150272700D02*
X157400000Y-152224700D01*
X155448000Y-147504000D02*
X155448000Y-150272700D01*
X157480000Y-109220000D02*
X157480000Y-110395300D01*
X155448000Y-147504000D02*
X155448000Y-138176000D01*
X157847400Y-110395300D02*
X157480000Y-110395300D01*
X158655300Y-111203200D02*
X157847400Y-110395300D01*
X158655300Y-114875800D02*
X158655300Y-111203200D01*
X157961100Y-115570000D02*
X158655300Y-114875800D01*
X157068400Y-115570000D02*
X157961100Y-115570000D01*
X155854300Y-116784100D02*
X157068400Y-115570000D01*
X155854300Y-130213900D02*
X155854300Y-116784100D01*
X156631600Y-130991200D02*
X155854300Y-130213900D01*
X156631600Y-136184400D02*
X156631600Y-130991200D01*
X155815300Y-137000700D02*
X156631600Y-136184400D01*
X155448000Y-137000700D02*
X155815300Y-137000700D01*
X155448000Y-138176000D02*
X155448000Y-137000700D01*
X105432300Y-155216300D02*
X105367200Y-155216300D01*
X106680000Y-156464000D02*
X105432300Y-155216300D01*
X100307700Y-155216300D02*
X99060000Y-156464000D01*
X105367200Y-155216300D02*
X100307700Y-155216300D01*
X111125400Y-136265500D02*
X111125400Y-124607600D01*
X109812200Y-137578700D02*
X111125400Y-136265500D01*
X109147900Y-137578700D02*
X109812200Y-137578700D01*
X105367200Y-141359400D02*
X109147900Y-137578700D01*
X105367200Y-155216300D02*
X105367200Y-141359400D01*
X109220000Y-60500000D02*
X109220000Y-57960000D01*
X157847300Y-118015300D02*
X157480000Y-118015300D01*
X162856600Y-123024600D02*
X157847300Y-118015300D01*
X162856600Y-137868100D02*
X162856600Y-123024600D01*
X160800000Y-139924700D02*
X162856600Y-137868100D01*
X160800000Y-141100000D02*
X160800000Y-139924700D01*
X157480000Y-116840000D02*
X157480000Y-118015300D01*
M02*
